<svg width="420" height="300" viewBox="0 0 420 300" fill="none" xmlns="http://www.w3.org/2000/svg" role="img" aria-label="עגלה ריקה">
  <defs>
    <linearGradient id="g1" x1="90" y1="40" x2="320" y2="250" gradientUnits="userSpaceOnUse">
      <stop stop-color="#fff7ef"/>
      <stop offset="1" stop-color="#e9f8e7"/>
    </linearGradient>
    <filter id="shadow" x="30" y="10" width="360" height="270" filterUnits="userSpaceOnUse" color-interpolation-filters="sRGB">
      <feDropShadow dx="0" dy="16" stdDeviation="18" flood-color="#3c2a1f" flood-opacity="0.12"/>
    </filter>
  </defs>
  <ellipse cx="210" cy="252" rx="128" ry="18" fill="#E8D6C9" opacity=".42"/>
  <g filter="url(#shadow)">
    <path d="M119 97h209l-25 94H150l-31-94Z" fill="url(#g1)" stroke="#8FD08E" stroke-width="8" stroke-linejoin="round"/>
    <path d="M86 63h38l23 132h157" stroke="#2F9C4A" stroke-width="12" stroke-linecap="round" stroke-linejoin="round"/>
    <path d="M157 119h144M166 151h126" stroke="#CFE4CE" stroke-width="8" stroke-linecap="round"/>
    <circle cx="169" cy="221" r="18" fill="#FFFFFF" stroke="#2F9C4A" stroke-width="8"/>
    <circle cx="280" cy="221" r="18" fill="#FFFFFF" stroke="#2F9C4A" stroke-width="8"/>
    <circle cx="247" cy="77" r="22" fill="#FF9A3C" opacity=".95"/>
    <path d="M247 53c12 3 19 11 21 22-11 2-22-1-31-8" stroke="#fff" stroke-width="5" stroke-linecap="round"/>
    <path d="M210 76c-8-14-2-29 13-36 8 14 2 29-13 36Z" fill="#7ACB66"/>
    <path d="M198 81c-16 0-28-10-31-25 17-2 30 8 31 25Z" fill="#8ED29A"/>
  </g>
</svg>